# xmcd
#
# Track frame offsets: 
#        150
#        16759
#        32492
#        48970
#        67307
#        80920
#        97072
#        119446
#        138513
#        159247
#        178112
#
# Disc length: 2750 seconds
#
# Revision: 0
# Processed by: cddbd v1.5.1PL0 Copyright (c) Steve Scherf et al.
# Submitted via: ExactAudioCopy v0.95a5
#
DISCID=940abc0b
DTITLE=Various Artist - A Classic Rock Christmas
DYEAR=2002
DGENRE=Christmas/Holiday
TTITLE0=Styx - All I Want
TTITLE1=Felix Cavaliere - Christmas In Your Arms
TTITLE2=REO Speedwagon - I Believe In Santa Claus
TTITLE3=Eddie Money and Ronnie Spector - Everybody Loves Christmas
TTITLE4=John Waite - All I Want For Christmas
TTITLE5=Greg Lake - I Believe In Father Christmas
TTITLE6=Survivor - Christmas Is Here
TTITLE7=Father Guido Sarducci (Featuring Joe Walsh and Joe Vitale) - San
TTITLE7=ta's Lament
TTITLE8=Keith Emerson (Featuring The London Community Gospel Choir) - 
TTITLE8=Silent Night
TTITLE9=Tommy Shaw and Jack Blades - 12 Days Of Christmas
TTITLE10=Mark Farner - Mary (The Return From Calvary)
EXTD=
EXTT0=
EXTT1=
EXTT2=
EXTT3=
EXTT4=
EXTT5=
EXTT6=
EXTT7=
EXTT8=
EXTT9=
EXTT10=
PLAYORDER=
